<?xml version="1.0" standalone="no"?><!DOCTYPE svg PUBLIC "-//W3C//DTD SVG 1.1//EN" "http://www.w3.org/Graphics/SVG/1.1/DTD/svg11.dtd"><svg class="icon" width="200px" height="200.00px" viewBox="0 0 1024 1024" version="1.1" xmlns="http://www.w3.org/2000/svg"><path fill="#333333" d="M883.626667 145.493333l-5.12-5.12a42.666667 42.666667 0 0 0-29.866667-12.373333H512a85.333333 85.333333 0 0 0-60.16 24.746667L134.4 469.333333a20.906667 20.906667 0 0 0-6.4 15.36v8.533334a20.906667 20.906667 0 0 0 6.4 15.36l29.44 29.44a42.666667 42.666667 0 0 0 29.866667 12.373333H426.666667a42.666667 42.666667 0 0 1 29.866666 12.8l5.12 5.12a42.666667 42.666667 0 0 1 12.8 29.866667v232.106666a42.666667 42.666667 0 0 0 12.373334 29.866667l29.44 29.44a20.906667 20.906667 0 0 0 15.36 6.4h8.533333a20.906667 20.906667 0 0 0 15.36-6.4l316.586667-316.586667A85.333333 85.333333 0 0 0 896 512V175.36a42.666667 42.666667 0 0 0-12.373333-29.866667z m-203.946667 283.733334a85.333333 85.333333 0 1 1 85.333333-85.333334 85.333333 85.333333 0 0 1-85.333333 85.333334z" /></svg>